<?xml version="1.0" standalone="no"?>
<!DOCTYPE svg PUBLIC "-//W3C//DTD SVG 20010904//EN"
 "http://www.w3.org/TR/2001/REC-SVG-20010904/DTD/svg10.dtd">
<svg version="1.0" xmlns="http://www.w3.org/2000/svg"
 width="322.000000pt" height="322.000000pt" viewBox="0 0 322.000000 322.000000"
 preserveAspectRatio="xMidYMid meet">
<metadata>
Created by potrace 1.11, written by Peter Selinger 2001-2013
</metadata>
<g transform="translate(0.000000,322.000000) scale(0.100000,-0.100000)"
fill="#000000" stroke="none">
<path d="M2247 3191 c-24 -30 -91 -214 -102 -286 l-7 -40 -361 -1 c-266 0
-406 -5 -526 -17 -91 -10 -168 -14 -171 -10 -4 5 -15 31 -25 58 -36 101 -120
216 -174 236 -82 32 -98 -34 -110 -444 l-10 -298 -98 -97 c-149 -147 -237
-274 -315 -453 -42 -98 -101 -309 -90 -321 4 -4 74 -10 156 -14 118 -6 151
-10 162 -23 7 -9 39 -50 72 -91 85 -107 271 -283 382 -362 113 -80 307 -182
443 -232 l98 -37 42 19 c129 57 387 253 582 443 210 204 329 339 367 417 l31
62 81 25 c45 14 118 32 164 41 52 11 82 21 82 30 0 28 -74 173 -136 266 -75
112 -200 248 -302 327 l-70 55 -7 75 c-24 267 -81 645 -101 679 -19 29 -27 28
-57 -7z m180 -1481 l-6 -70 -110 -106 c-61 -58 -163 -165 -228 -237 -213 -239
-333 -355 -476 -461 l-37 -29 -48 44 c-26 24 -121 97 -212 161 -211 149 -351
262 -468 376 l-92 90 0 96 c0 68 4 98 13 101 22 8 448 54 652 70 293 24 479
32 764 34 l254 1 -6 -70z"/>
<path d="M1587 1694 c-83 -26 -90 -89 -14 -136 53 -33 70 -35 105 -7 55 43 80
112 50 137 -24 18 -92 21 -141 6z"/>
<path d="M1823 1460 c-55 -66 -75 -80 -110 -80 -26 0 -42 8 -64 31 -16 17 -29
36 -29 41 0 6 -17 -8 -39 -30 -54 -55 -97 -68 -160 -47 -27 9 -68 34 -91 55
-40 37 -60 48 -60 34 0 -27 60 -206 90 -270 47 -98 96 -146 167 -163 138 -33
197 90 134 277 -10 28 -17 52 -16 52 1 0 16 -5 34 -11 41 -14 73 -6 116 32 51
45 75 82 65 99 -7 11 -15 6 -37 -20z"/>
<path d="M2875 1485 c-148 -99 -304 -226 -392 -318 -61 -65 -73 -83 -82 -129
-8 -35 -10 -196 -9 -477 l3 -423 65 48 c102 75 242 224 314 331 145 219 220
440 241 708 6 80 -9 297 -23 321 -5 9 -37 -7 -117 -61z"/>
<path d="M244 1170 c26 -320 165 -612 405 -851 123 -124 303 -255 309 -226 2
11 -159 859 -183 962 -3 13 -21 26 -52 38 -91 33 -428 145 -457 152 l-29 6 7
-81z"/>
</g>
</svg>
