<?xml version="1.0" encoding="UTF-8"?><!DOCTYPE svg PUBLIC "-//W3C//DTD SVG 1.1//EN" "http://www.w3.org/Graphics/SVG/1.1/DTD/svg11.dtd"><svg xmlns="http://www.w3.org/2000/svg" style="display:none"><symbol id="icon-email" viewBox="0 0 17 13"><path d="M15.6 11.6H1.4V5.8H0V13h17V5.8h-1.4v5.8zM0 0v2.3l8.5 7.1L17 2.3V0H0zm15.6 1.6L8.5 7.5 1.4 1.6v-.2h14.2v.2z"/></symbol><symbol id="icon-fc" viewBox="0 0 10 19"><path d="M7.05 19H2.01v-8.84H0V5.8h1.94c-.14-1.98.23-3.42 1.13-4.41C3.84.55 4.98.08 6.46 0H10v4.21H7.22c-.12.22-.18.75-.18 1.59h2.94v4.37H7.05V19zm-3.93-1.03h2.82V9.14h2.93V6.83H5.94l-.01-.5c-.03-1.4 0-2.59.74-3.05l.14-.09h2.07V1.03h-2.4c-1.15.06-2.01.4-2.58 1.02-.75.84-1.03 2.26-.8 4.21l.07.57H1.11v2.31h2.01v8.83z"/></symbol><symbol id="icon-htmlacademy" viewBox="0 0 26.94 34.09"><path d="M13.62.02L13.47 0 0 1.41v24.66l13.47 8.02L26.9 26.1l.04-.02V1.41L13.62.02zm11.4 12.11l-11.53-6.8v-.1l-.09.05-.09-.06v.11L1.92 12.12V3.15l11.55-1.21 11.55 1.21v8.98zM13.41 6.79l11.52 6.71-4.48 2.64-7.09-4.22-.01 1.42 5.9 3.51-.86.51-5.03-2.99-.01 1.41 3.83 2.27-.78.52-3.03-1.79-.01 1.41 1.85 1.09-1.8 1.08-11.38-6.74 11.38-6.83zM1.92 15.13l11.41 6.79.02 1.04-7.94-4.73-.01 1.42 7.98 4.79.02 1.08-7.97-4.74-.02 1.42 8.02 4.82.05.02 8.14-4.87-.01-5.18 3.42-2.04v10.02l-11.55 6.87-11.56-6.86v-9.85z"/></symbol><symbol id="icon-insta" viewBox="0 0 16 16"><path d="M11.83 1.04c1.73 0 3.13 1.41 3.13 3.13v7.66c0 1.73-1.4 3.13-3.13 3.13H4.17c-1.73 0-3.13-1.41-3.13-3.13V4.18c0-1.73 1.4-3.13 3.13-3.13l7.66-.01m0-1.04H4.17C1.88 0 0 1.88 0 4.18v7.66c0 2.3 1.88 4.18 4.17 4.18h7.65c2.29 0 4.17-1.88 4.17-4.18V4.18C16 1.88 14.12 0 11.83 0z"/><path d="M8 4.93c1.7 0 3.08 1.38 3.08 3.08 0 1.7-1.38 3.08-3.08 3.08-1.7 0-3.08-1.38-3.08-3.08 0-1.7 1.38-3.08 3.08-3.08m0-1.05c-2.28 0-4.13 1.85-4.13 4.13S5.72 12.13 8 12.13s4.12-1.85 4.12-4.13S10.28 3.88 8 3.88z"/><circle cx="12.27" cy="3.74" r=".93"/></symbol><symbol id="icon-phone" viewBox="0 0 20 20"><path d="M17.9 9.4H9.4v1.2h8.5l-2.1 2.1.9.9 3.1-3.1c.2-.2.2-.6 0-.9l-3.1-3.1-.9.9 2.1 2zM8.1 19.4v-6.2c0-.3-.3-.6-.6-.6H3.1c0 .7.6 1.2 1.2 1.2h2.5v5H3.1c-1 .1-1.8-.7-1.9-1.7v-14c0-1 .8-1.8 1.7-1.8H6.8v5H4.4c-.7 0-1.2.6-1.2 1.2h4.4c.3 0 .6-.3.6-.6V.6C8.1.3 7.8 0 7.5 0H3.1C1.5-.1.1 1.2 0 2.9V16.8c-.1 1.7 1.2 3.1 2.9 3.1H7.5c.3.1.6-.2.6-.5z"/></symbol><symbol id="icon-vk" viewBox="0 0 22 12"><path d="M17.55 12c-.28 0-.86-.06-1.52-.48-.47-.29-.9-.74-1.31-1.17-.32-.34-.86-.9-1.06-.9-.2.06-.35.7-.35 1.19 0 .09 0 .59-.34.92-.31.3-.8.37-.89.38l-1.41.01c-.71 0-3.2-.17-5.45-2.3C2.52 7.1.21 2.2.11 1.99c-.14-.35-.18-.81.11-1.13.29-.31.79-.36 1-.36L4.21.48l.08.01c.07.01.42.07.71.26.28.19.43.5.46.56 0 .01.47 1.09 1.08 2.04.96 1.52 1.39 1.87 1.54 1.95.14-.32.2-1.29.14-2.19 0-.38-.07-.84-.18-.97-.08-.1-.31-.19-.57-.22l-.54-.53c-.07-.5.47-.93.84-1.1C8.31.05 9.09 0 10.08 0h.52c.91.01 1.19.06 1.58.15 1.25.27 1.2 1.32 1.15 2.52-.02.35-.03.76-.03 1.23 0 .11 0 .24-.01.36-.01.29-.02.79.07.99.16-.11.62-.51 1.52-1.89.57-.89 1.03-1.93 1.11-2.13.13-.33.45-.72 1.18-.72L20.3.5c.01 0 .13-.01.28-.01.72 0 1.17.22 1.34.65.2.49.12 1.26-1.73 3.51-.27.33-.51.61-.72.86-.44.52-.89 1.05-.91 1.21.04.13.49.51.92.87 1.12.95 1.85 1.72 2.22 2.34.38.58.31 1.01.19 1.28-.31.66-1.2.74-1.38.75l-2.78.04h-.18zm-3.89-3.69c.66 0 1.23.6 1.84 1.23.36.38.74.77 1.1 1 .53.34.96.32 1.03.31l.08-.01 2.79-.04c.13-.01.3-.06.39-.1-.01-.03-.04-.07-.07-.13-.33-.55-1.02-1.26-1.97-2.07-.87-.73-1.32-1.12-1.37-1.71-.05-.61.36-1.1 1.18-2.06.21-.24.44-.52.71-.84 1.14-1.39 1.44-2.01 1.51-2.25-.12-.02-.48-.02-.5-.01l-3.2.02c-.14 0-.18.03-.18.03-.14.32-.6 1.38-1.21 2.33-1.39 2.15-2.04 2.44-2.5 2.44-.15 0-.29-.04-.42-.11-.74-.43-.71-1.4-.68-2.1 0-.11.01-.22.01-.33 0-.49.02-.92.04-1.29.06-1.28.01-1.29-.28-1.35-.3-.07-.52-.11-1.36-.12h-.51c-.46 0-.98.01-1.4.07.07.06.13.12.19.19.43.54.44 1.49.44 1.67.1 1.25.04 2.89-.75 3.28-.14.07-.29.1-.44.1-.68 0-1.36-.67-2.51-2.49a16.6 16.6 0 0 1-1.16-2.2c-.01-.01-.04-.05-.06-.06a.732.732 0 0 0-.23-.09l-2.94.02h-.05c.43.91 2.51 5.02 4.78 7.17 2.01 1.91 4.27 2 4.71 2h1.36c.03-.01.16-.05.2-.08-.01.01-.01-.04-.01-.07 0-.2.01-1.98 1.16-2.31.08-.02.18-.04.28-.04z"/></symbol></svg>