<svg version="1.0" xmlns="http://www.w3.org/2000/svg" width="429.333" height="429.333" viewBox="0 0 322 322"><path d="M224.7 2.9c-2.4 3-9.1 21.4-10.2 28.6l-.7 4-36.1.1c-26.6 0-40.6.5-52.6 1.7-9.1 1-16.8 1.4-17.1 1-.4-.5-1.5-3.1-2.5-5.8-3.6-10.1-12-21.6-17.4-23.6-8.2-3.2-9.8 3.4-11 44.4l-1 29.8-9.8 9.7c-14.9 14.7-23.7 27.4-31.5 45.3-4.2 9.8-10.1 30.9-9 32.1.4.4 7.4 1 15.6 1.4 11.8.6 15.1 1 16.2 2.3.7.9 3.9 5 7.2 9.1 8.5 10.7 27.1 28.3 38.2 36.2 11.3 8 30.7 18.2 44.3 23.2l9.8 3.7 4.2-1.9c12.9-5.7 38.7-25.3 58.2-44.3 21-20.4 32.9-33.9 36.7-41.7l3.1-6.2 8.1-2.5c4.5-1.4 11.8-3.2 16.4-4.1 5.2-1.1 8.2-2.1 8.2-3 0-2.8-7.4-17.3-13.6-26.6-7.5-11.2-20-24.8-30.2-32.7l-7-5.5-.7-7.5c-2.4-26.7-8.1-64.5-10.1-67.9-1.9-2.9-2.7-2.8-5.7.7zm18 148.1l-.6 7-11 10.6c-6.1 5.8-16.3 16.5-22.8 23.7-21.3 23.9-33.3 35.5-47.6 46.1l-3.7 2.9-4.8-4.4c-2.6-2.4-12.1-9.7-21.2-16.1-21.1-14.9-35.1-26.2-46.8-37.6l-9.2-9v-9.6c0-6.8.4-9.8 1.3-10.1 2.2-.8 44.8-5.4 65.2-7 29.3-2.4 47.9-3.2 76.4-3.4l25.4-.1-.6 7z"/><path d="M158.7 152.6c-8.3 2.6-9 8.9-1.4 13.6 5.3 3.3 7 3.5 10.5.7 5.5-4.3 8-11.2 5-13.7-2.4-1.8-9.2-2.1-14.1-.6zm23.6 23.4c-5.5 6.6-7.5 8-11 8-2.6 0-4.2-.8-6.4-3.1-1.6-1.7-2.9-3.6-2.9-4.1 0-.6-1.7.8-3.9 3-5.4 5.5-9.7 6.8-16 4.7-2.7-.9-6.8-3.4-9.1-5.5-4-3.7-6-4.8-6-3.4 0 2.7 6 20.6 9 27 4.7 9.8 9.6 14.6 16.7 16.3 13.8 3.3 19.7-9 13.4-27.7-1-2.8-1.7-5.2-1.6-5.2.1 0 1.6.5 3.4 1.1 4.1 1.4 7.3.6 11.6-3.2 5.1-4.5 7.5-8.2 6.5-9.9-.7-1.1-1.5-.6-3.7 2zm105.2-2.5c-14.8 9.9-30.4 22.6-39.2 31.8-6.1 6.5-7.3 8.3-8.2 12.9-.8 3.5-1 19.6-.9 47.7l.3 42.3 6.5-4.8c10.2-7.5 24.2-22.4 31.4-33.1 14.5-21.9 22-44 24.1-70.8.6-8-.9-29.7-2.3-32.1-.5-.9-3.7.7-11.7 6.1zM24.4 205c2.6 32 16.5 61.2 40.5 85.1 12.3 12.4 30.3 25.5 30.9 22.6.2-1.1-15.9-85.9-18.3-96.2-.3-1.3-2.1-2.6-5.2-3.8-9.1-3.3-42.8-14.5-45.7-15.2l-2.9-.6.7 8.1z"/></svg>