<svg xmlns="http://www.w3.org/2000/svg" viewBox="0 0 492.5 527.5"><defs><style>.a{fill:#68b645;}</style></defs><title>cat-slim-icon</title><circle class="a" cx="246.25" cy="281.25" r="246.25"/><path d="M318.43-42.8h-2c-3.57,1.86-5.71,5-7.55,8.42A83.08,83.08,0,0,0,302-16.2c-1.12,4.27-3.43,6.32-7.78,7.07C281.91-7,273,0,266.72,10.62A140.62,140.62,0,0,0,257,31.44c-7.5,19.44-13.23,39.48-20.22,59.09-3.34,9.36-3.47,9.24-13.48,9.34-11.9.11-11.06-1.86-11.24,11.33-.06,4.18,1.26,6.29,5.67,6.08,1.37-.07,3.42-.69,3.94,1.14.43,1.52-1.26,2.58-2.27,3.64-6.26,6.63-14.11,10.5-22.78,12.84-10,2.69-20.13,4.8-29.89,8.09-24.9,8.4-48,20.13-65.92,40-11,12.12-18.48,26.48-24.88,41.39-19.5,45.41-28.64,93.47-35.91,142-3.41,22.73-5.8,45.58-7.66,68.47-.93,11.43-2.13,22.88-2,34.39h175c.62-2.44-.39-4.61-1.22-6.76-3.56-9.26-10.87-14.08-20.1-16.22-3.65-.84-4.11-1.94-1.84-4.83A54.16,54.16,0,0,0,190.63,425c8.58-25.37,11.89-51.84,16-78.11,3.16-20.05,7.87-39.46,18.26-57.15a114.67,114.67,0,0,1,29.38-33.63c4.36-3.33,4.5-3.33,5.25,2.32.5,3.78.63,7.62.86,11.44a490.79,490.79,0,0,1-.91,74.8c-1.78,19.42-2.49,38.81-.8,58.29a398.3,398.3,0,0,0,11.74,66.25h70a28.58,28.58,0,0,0-22.27-23.44c-6.74-1.32-13.27-.43-19.79,1.07-3.14.72-4.45.16-4.72-3.43a300.34,300.34,0,0,1,5-83.5c6.59-31.8,12.8-63.67,16.1-96a93.9,93.9,0,0,1,11.94-37.09c6.27-11.18,11.73-22.82,17.88-34.07,4.88-8.92,5.81-17.93,2.18-27.39-1.43-3.73-2.78-7.51-4.53-11.1-5-10.34-10.35-20.52-15.3-30.89-2.56-5.36-2-5.93,3.73-6.06,8.56-.18,8.57-.18,8.7-8.67,0-1.17,0-2.33,0-3.5.07-3.63-1.34-5.64-5.33-5.35-2.65.2-5.33,0-8,.05-3.63.07-4.68-1.52-3.79-5,3-12,14.6-21.9,27-23.41C361,70,372.51,71.63,384,73.67c3.41.61,5.28-.14,6.57-3.38,2.09-5.26,4.45-10.42,6.77-15.58,1-2.16,1-4-.49-6C380.14,27,362,7,337.12-5.73a8,8,0,0,1-4.66-5.94c-1.58-7.5-3.42-14.94-6.66-21.95C324.09-37.3,322.13-40.74,318.43-42.8Z" transform="translate(4 42.8)"/></svg>