<svg id="Layer_2" data-name="Layer 2" xmlns="http://www.w3.org/2000/svg" viewBox="0 0 172.26 57.07"><defs><style>.cls-1{fill:#fdc305;}.cls-2{fill:#f06351;}.cls-3{fill:#e55645;}.cls-4{fill:#111;}.cls-5{fill:#444;}</style></defs><title>logo-tablet</title><path class="cls-1" d="M59.62,21.74A25.5,25.5,0,1,0,32.37,56.79c-.58-2.08-1.16-4.38-1.68-6.83a32.55,32.55,0,0,0,4.75,2.54h0s.12,2.15.28,4.55A25.3,25.3,0,0,0,41,56.59a2,2,0,0,1,0-.76c.29-1.85,1.09-5.21,1.24-7.38a15.19,15.19,0,0,0,2.89-3.7v0l-.05.43c-.55,4.25-1.7,8.78-2.39,10a5.75,5.75,0,0,1-.83,1.15A25.52,25.52,0,0,0,59.62,21.74Zm-1.47,3.77c-.43.43-1.34.72-1.49-.58s-.19-2.21-.19-2.21-1.92-3.41-2.64-3.45S48,22.73,46.69,24.21c-1.16,1.28-1.39,1.2-1.39,3.45,0,1.71.22,8.13.1,13.05h0l-8.11,2.16a64.47,64.47,0,0,1-7.77,1.78l-1-5.81h-.13L25.81,25.7S22,24.26,20.63,23.88a3.72,3.72,0,0,0-4,.62,5.06,5.06,0,0,0-1.73,3.84,6.86,6.86,0,0,1,.48,1.44c0,.48-1.2.43-2,.43s-.91-1.44-.29-3.12A23.55,23.55,0,0,1,15,23.4,11.85,11.85,0,0,1,17,20.52s.14-.34,1.25-.24,7.25.43,7.25.43l.05-2.26a143.6,143.6,0,0,1,20.16-1.33q0,.91-.06,1.82a22.54,22.54,0,0,1,8.11-2,.91.91,0,0,1,.77.38c.34.43,2.4,3,2.64,3.36a28,28,0,0,1,1.82,3A6.24,6.24,0,0,1,58.15,25.51Z" transform="translate(0 0)"/><path class="cls-2" d="M56.21,19.43c.47.6.88,1.12,1,1.28a28,28,0,0,1,1.82,3,6.24,6.24,0,0,1-.86,1.78c-.43.43-1.34.72-1.49-.58s-.19-2.21-.19-2.21-1.92-3.41-2.64-3.45S48,22.73,46.69,24.21c-1.16,1.28-1.39,1.2-1.39,3.45,0,1.5.17,6.62.13,11.18,1.8.21,4.45.71,5.25,1.87,0,0-.29-7.15,7.77-3.41,0,0,.29-9.74,11.42-7.25A43.59,43.59,0,0,0,56.21,19.43Z" transform="translate(0 0)"/><path class="cls-2" d="M45.74,17.11A90.12,90.12,0,0,0,44.33.65s-.14-1.3-.86-.24a14.16,14.16,0,0,0-1.2,3.93,70.32,70.32,0,0,0-12.76.34C28.69,1.95,27.3.75,26.63,1s-.72,3.31-.72,3.31l-.33,14.1A143.6,143.6,0,0,1,45.74,17.11Z" transform="translate(0 0)"/><path class="cls-3" d="M45.15,44.76c.13-1.06.2-2.47.24-4l-8.11,2.16a64.47,64.47,0,0,1-7.77,1.78l1.1,5,.07.32a32.55,32.55,0,0,0,4.75,2.54,42.47,42.47,0,0,0,6.84-4.12v.06A15.19,15.19,0,0,0,45.15,44.76Z" transform="translate(0 0)"/><path d="M31.86,14c0-.09,1,.68,1.41.92s.61.42.61.59-.26.34-.62.34-.91-.12-1-.26l.94,0h.29A8.24,8.24,0,0,1,31.86,14Z" transform="translate(0 0)"/><path d="M39.33,14.11s-1,1.27-1.09,1.33-.17.34.19.29a7.93,7.93,0,0,0,1.22-.28c.11-.06.07-.2-.12-.18s-.68,0-1,.11l.84-1.26S39.41,14,39.33,14.11Z" transform="translate(0 0)"/><path d="M36.2,20.19a2.3,2.3,0,0,0,1.09-1c.28-.66,0-.91-.44-1a2.44,2.44,0,0,0-1.74.34c-.4.37-.34.73-.05,1A5,5,0,0,0,36.2,20.19Z" transform="translate(0 0)"/><path class="cls-2" d="M35.79,21.44a2,2,0,0,1-.46.59,1.72,1.72,0,0,1-1,.39A2.16,2.16,0,0,1,32.87,22a2.08,2.08,0,0,1-.53-.44.94.94,0,0,0-.36-.25s.75,4.1,2.56,4.74,2.14-.75,2.2-1.13a5.59,5.59,0,0,0-.82-3.22C35.91,21.37,35.89,21.58,35.79,21.44Z" transform="translate(0 0)"/><path d="M34.15,22.58h0a3.46,3.46,0,0,1-2.33-1.42A.14.14,0,0,1,32,21a3.23,3.23,0,0,0,2.1,1.3h0a2.09,2.09,0,0,0,1.63-1l.14-.19.1.21s.37.76,1,.79,1.05-.41,1.62-1.28a.14.14,0,1,1,.24.16c-.63,1-1.26,1.45-1.88,1.41a1.55,1.55,0,0,1-1.12-.76A2.25,2.25,0,0,1,34.15,22.58Z" transform="translate(0 0)"/><path class="cls-4" d="M41.05,29.22l-3.12,1.3,1.14-5.61-7.47,9.72,3.12-1.3-1.14,5.61ZM33.7,33l4.11-5.38-.8,4,2-.82-4.11,5.38.8-4Z" transform="translate(0 0)"/><path class="cls-2" d="M45.68,18.92a58.12,58.12,0,0,0-5.06,5.19A31.62,31.62,0,0,1,35.33,29c-.22-.53-1.62-1.51-1.62-1.51s-3.13-2.14-5.18-3.82a33.1,33.1,0,0,1-3.12-3l-2-.11a22.54,22.54,0,0,0,12,8.8c.86-.14,3.27-1.86,5.07-3.26a57.42,57.42,0,0,0,5.94-5.89,6.07,6.07,0,0,0,1.14-2C46.4,18.59,45.68,18.92,45.68,18.92Z" transform="translate(0 0)"/><path class="cls-2" d="M25.81,25.7S22,24.26,20.63,23.88a3.72,3.72,0,0,0-4,.62,5.06,5.06,0,0,0-1.73,3.84,6.86,6.86,0,0,1,.48,1.44c0,.48-1.2.43-2,.43s-.91-1.44-.29-3.12A23.55,23.55,0,0,1,15,23.4C9.55,26.23,0,32.75,0,32.75A45.7,45.7,0,0,1,8.16,33c5.23.53,4.94,4.65,4.94,4.65a38,38,0,0,1,5.61-1.1C20.82,36.4,21,38.65,21,38.65l.53,3.84a18.71,18.71,0,0,1,2.64-2.35,6,6,0,0,1,4.37-1.3h0Z" transform="translate(0 0)"/><path class="cls-4" d="M89.56,37.12a5.91,5.91,0,0,1-1-3.69V28.09a6,6,0,0,1,1-3.73,5.2,5.2,0,0,1,6.61-.15,4.79,4.79,0,0,1,.95,3.19v1.25H94.16V27.28a7.12,7.12,0,0,0-.06-1.07,1.19,1.19,0,0,0-.33-.67,1.12,1.12,0,0,0-.82-.27,1,1,0,0,0-1.07.53,4,4,0,0,0-.24,1.56v6.77a3.43,3.43,0,0,0,.28,1.56,1.06,1.06,0,0,0,1,.52,1,1,0,0,0,1-.52,4.2,4.2,0,0,0,.22-1.56V32.69H97.1v1.23a5.16,5.16,0,0,1-.94,3.3,3.94,3.94,0,0,1-3.24,1.17A4,4,0,0,1,89.56,37.12Z" transform="translate(0 0)"/><path class="cls-4" d="M101.12,23.29h3.37l2.87,14.91h-2.8L104,34.92h-2.36l-.57,3.28H98.23ZM103.71,33l-.9-6-.88,6Z" transform="translate(0 0)"/><path class="cls-4" d="M109.51,25.54h-2.3V23.29h7.62v2.25h-2.26V38.2h-3.05Z" transform="translate(0 0)"/><path class="cls-5" d="M120.81,23.29h5.78v1.55h-3.7v4.93h3v1.47h-3v5.47h3.74V38.2h-5.82Z" transform="translate(0 0)"/><path class="cls-5" d="M128.3,23.29h1.42l4.23,9.9v-9.9h1.73V38.2h-1.33L130.06,28V38.2H128.3Z" transform="translate(0 0)"/><path class="cls-5" d="M138,23.29h5.78v1.55h-3.7v4.93h3v1.47h-3v5.47h3.74V38.2H138Z" transform="translate(0 0)"/><path class="cls-5" d="M145.51,23.29h3a5,5,0,0,1,3.32.93,3.84,3.84,0,0,1,1.06,3q0,2.87-1.84,3.48l2.12,7.47h-2l-2-7h-1.62v7h-2.08Zm2.87,6.42a2.8,2.8,0,0,0,1.92-.53,2.57,2.57,0,0,0,.58-1.93,4.14,4.14,0,0,0-.2-1.44A1.39,1.39,0,0,0,150,25a3.43,3.43,0,0,0-1.45-.25h-.92v4.93Z" transform="translate(0 0)"/><path class="cls-5" d="M155.68,37.1a6.6,6.6,0,0,1-.9-3.8v-5a9.47,9.47,0,0,1,.36-2.84,3.18,3.18,0,0,1,1.23-1.71,4.2,4.2,0,0,1,2.4-.6,3.75,3.75,0,0,1,3,1,5,5,0,0,1,.91,3.29v.55h-2V27.6a8.11,8.11,0,0,0-.13-1.65,1.4,1.4,0,0,0-.54-.87,2.11,2.11,0,0,0-1.22-.29,1.83,1.83,0,0,0-1.29.4,1.85,1.85,0,0,0-.54,1.06,10.27,10.27,0,0,0-.12,1.77v5.52a5.37,5.37,0,0,0,.41,2.46,1.66,1.66,0,0,0,1.59.75,1.64,1.64,0,0,0,1.59-.81,5.8,5.8,0,0,0,.43-2.59v-1H159V30.82h3.77V38.2h-1.31l-.2-1.71a2.62,2.62,0,0,1-2.65,1.9A3.33,3.33,0,0,1,155.68,37.1Z" transform="translate(0 0)"/><path class="cls-5" d="M167.07,32.93l-3.22-9.64h1.93l2.28,7.2,2.25-7.2h2l-3.2,9.64V38.2h-2Z" transform="translate(0 0)"/></svg>