<svg id="Layer_2" data-name="Layer 2" xmlns="http://www.w3.org/2000/svg" viewBox="0 0 191.45 37.61"><defs><style>.cls-2{fill:#f06351}</style></defs><path d="M6.07 20.72l.05-2.27a143.66 143.66 0 0 1 20.16-1.33q0 .91-.06 1.82a25.45 25.45 0 0 1 6-1.81A16.67 16.67 0 0 0 .19 20.39c2.17.13 5.88.33 5.88.33zm21.17 3.51c-1.16 1.28-1.39 1.2-1.39 3.46v9.17A16.68 16.68 0 0 0 33 19.9a33.68 33.68 0 0 0-5.76 4.33zM6.36 25.72s-3.79-1.44-5.18-1.82A10.59 10.59 0 0 0 0 23.61a16.66 16.66 0 0 0 8.68 14z" fill="#fdc305"/><path class="cls-2" d="M26.29 17.12A90.16 90.16 0 0 0 24.89.65S24.75-.64 24 .41a14.17 14.17 0 0 0-1.2 3.94 70.35 70.35 0 0 0-12.77.34C9.24 2 7.85.75 7.18 1s-.72 3.31-.72 3.31l-.33 14.1a143.66 143.66 0 0 1 20.16-1.29z"/><path d="M12.41 14c0-.09 1 .68 1.41.92s.61.42.61.59-.26.34-.62.34-.91-.12-1-.26h1.23A8.24 8.24 0 0 1 12.41 14zm7.48.11s-1 1.27-1.09 1.33-.17.34.19.29a7.93 7.93 0 0 0 1.22-.28c.11-.06.07-.2-.12-.18s-.68 0-1 .11l.84-1.26s.07-.12-.04-.01zm-3.14 6.09a2.3 2.3 0 0 0 1.09-1c.28-.66 0-.91-.44-1a2.44 2.44 0 0 0-1.74.34c-.4.37-.34.73-.05 1a5 5 0 0 0 1.14.66z"/><path class="cls-2" d="M16.35 21.45a2 2 0 0 1-.46.59 1.72 1.72 0 0 1-1 .39 2.16 2.16 0 0 1-1.47-.43 2.08 2.08 0 0 1-.53-.44.94.94 0 0 0-.36-.25s.75 4.1 2.57 4.75 2.14-.75 2.2-1.13a5.59 5.59 0 0 0-.82-3.22c-.02-.33-.03-.13-.13-.26z"/><path d="M14.71 22.59a3.46 3.46 0 0 1-2.33-1.42.14.14 0 0 1 .23-.17 3.23 3.23 0 0 0 2.1 1.3 2.09 2.09 0 0 0 1.63-1l.14-.19.1.21s.37.76 1 .79 1.05-.41 1.62-1.28a.14.14 0 1 1 .24.16c-.63 1-1.26 1.45-1.88 1.41a1.55 1.55 0 0 1-1.12-.76 2.25 2.25 0 0 1-1.73.95z"/><path class="cls-2" d="M26.24 18.92a58.15 58.15 0 0 0-5.06 5.19 31.64 31.64 0 0 1-5.3 4.89c-.22-.53-1.62-1.51-1.62-1.51s-3.13-2.14-5.18-3.82a33.11 33.11 0 0 1-3.13-3l-2-.11a22.55 22.55 0 0 0 12 8.8c.86-.14 3.28-1.86 5.08-3.26a57.44 57.44 0 0 0 5.94-5.89 6.07 6.07 0 0 0 1.14-2c-1.11.39-1.87.71-1.87.71z"/><path d="M94.79 26.06a7 7 0 0 1-1.19-4.4v-6.4a7.09 7.09 0 0 1 1.18-4.44q1.18-1.5 4-1.5a4.84 4.84 0 0 1 3.86 1.34 5.69 5.69 0 0 1 1.14 3.79V16h-3.76v-1.79a4.52 4.52 0 0 0-.21-1.58q-.22-.55-1-.55a1.05 1.05 0 0 0-1.07.58 4.08 4.08 0 0 0-.26 1.61v8.36a3.83 3.83 0 0 0 .27 1.61 1.06 1.06 0 0 0 1.06.56 1 1 0 0 0 1-.56 4.5 4.5 0 0 0 .23-1.61v-1.86h3.76v1.53a6 6 0 0 1-1.14 3.89 4.73 4.73 0 0 1-3.86 1.39q-2.8.01-4.01-1.52zm13.6-16.5h4.38L116 27.32h-3.54l-.58-3.75h-2.55l-.6 3.75h-3.63zm3.13 11.67l-.92-6.93-.92 6.93zm7.15-8.75H116V9.56h9.08v2.92h-2.6v14.84h-3.86zm13.42-2.92h6.74v1.84h-4.32v5.88H138V19h-3.5v6.51h4.36v1.78h-6.78zm8.72 0h1.65l4.94 11.8V9.56h2v17.76h-1.55l-5-12.13v12.13h-2.06zm11.02 0h6.74v1.84h-4.32v5.88h3.5V19h-3.5v6.51h4.36v1.78h-6.78zm8.72 0h3.5a5.69 5.69 0 0 1 3.88 1.11 4.64 4.64 0 0 1 1.23 3.61q0 3.42-2.15 4.14l2.47 8.9h-2.34L164.87 19H163v8.33h-2.43zm3.35 7.65a3.22 3.22 0 0 0 2.24-.64 3.1 3.1 0 0 0 .68-2.3 5 5 0 0 0-.24-1.72 1.64 1.64 0 0 0-.84-.92 3.93 3.93 0 0 0-1.7-.3H163v5.88zm8.38 8.79a8 8 0 0 1-1.05-4.53v-5.92a11.47 11.47 0 0 1 .42-3.39 3.78 3.78 0 0 1 1.44-2 4.82 4.82 0 0 1 2.8-.71 4.32 4.32 0 0 1 3.47 1.25 6 6 0 0 1 1.06 3.93v.66h-2.28v-.55a9.89 9.89 0 0 0-.15-2 1.67 1.67 0 0 0-.63-1 2.41 2.41 0 0 0-1.43-.35 2.11 2.11 0 0 0-1.5.47 2.22 2.22 0 0 0-.63 1.26 12.65 12.65 0 0 0-.14 2.11v6.58a6.51 6.51 0 0 0 .48 2.93 2.33 2.33 0 0 0 3.71-.08 7.05 7.05 0 0 0 .5-3.09v-1.29h-2.21v-1.75h4.4v8.79H179l-.24-2a3.07 3.07 0 0 1-3.09 2.26 3.85 3.85 0 0 1-3.39-1.58zm13.11-4.95l-3.75-11.49h2.25l2.66 8.58 2.62-8.58h2.28l-3.74 11.49v6.27h-2.32z" fill="#111"/></svg>