<svg id="Layer_2" data-name="Layer 2" xmlns="http://www.w3.org/2000/svg" viewBox="0 0 191.45 37.61"><defs><style>.cls-1{fill:#fdc305;}.cls-2{fill:#f06351;}.cls-3{fill:#111;}</style></defs><title>logo-mobile</title><path class="cls-1" d="M6.07,20.72l.05-2.27a143.66,143.66,0,0,1,20.16-1.33q0,.91-.06,1.82a25.45,25.45,0,0,1,6-1.81A16.67,16.67,0,0,0,.19,20.39C2.36,20.52,6.07,20.72,6.07,20.72Z" transform="translate(0 0)"/><path class="cls-1" d="M27.24,24.23c-1.16,1.28-1.39,1.2-1.39,3.46,0,.91,0,4.9,0,9.17A16.68,16.68,0,0,0,33,19.9,33.68,33.68,0,0,0,27.24,24.23Z" transform="translate(0 0)"/><path class="cls-1" d="M6.36,25.72s-3.79-1.44-5.18-1.82A10.59,10.59,0,0,0,0,23.61a16.66,16.66,0,0,0,8.68,14Z" transform="translate(0 0)"/><path class="cls-2" d="M26.29,17.12A90.16,90.16,0,0,0,24.89.65S24.75-.64,24,.41a14.17,14.17,0,0,0-1.2,3.94,70.35,70.35,0,0,0-12.77.34C9.24,2,7.85.75,7.18,1s-.72,3.31-.72,3.31l-.33,14.1A143.66,143.66,0,0,1,26.29,17.12Z" transform="translate(0 0)"/><path d="M12.41,14c0-.09,1,.68,1.41.92s.61.42.61.59-.26.34-.62.34-.91-.12-1-.26l.94,0h.29A8.24,8.24,0,0,1,12.41,14Z" transform="translate(0 0)"/><path d="M19.89,14.11s-1,1.27-1.09,1.33-.17.34.19.29a7.93,7.93,0,0,0,1.22-.28c.11-.06.07-.2-.12-.18s-.68,0-1,.11l.84-1.26S20,14,19.89,14.11Z" transform="translate(0 0)"/><path d="M16.75,20.2a2.3,2.3,0,0,0,1.09-1c.28-.66,0-.91-.44-1a2.44,2.44,0,0,0-1.74.34c-.4.37-.34.73-.05,1A5,5,0,0,0,16.75,20.2Z" transform="translate(0 0)"/><path class="cls-2" d="M16.35,21.45a2,2,0,0,1-.46.59,1.72,1.72,0,0,1-1,.39A2.16,2.16,0,0,1,13.42,22a2.08,2.08,0,0,1-.53-.44.94.94,0,0,0-.36-.25s.75,4.1,2.57,4.75,2.14-.75,2.2-1.13a5.59,5.59,0,0,0-.82-3.22C16.46,21.38,16.45,21.58,16.35,21.45Z" transform="translate(0 0)"/><path d="M14.71,22.59h0a3.46,3.46,0,0,1-2.33-1.42.14.14,0,0,1,.23-.17,3.23,3.23,0,0,0,2.1,1.3h0a2.09,2.09,0,0,0,1.63-1l.14-.19.1.21s.37.76,1,.79,1.05-.41,1.62-1.28a.14.14,0,1,1,.24.16c-.63,1-1.26,1.45-1.88,1.41a1.55,1.55,0,0,1-1.12-.76A2.25,2.25,0,0,1,14.71,22.59Z" transform="translate(0 0)"/><path class="cls-2" d="M26.24,18.92a58.15,58.15,0,0,0-5.06,5.19A31.64,31.64,0,0,1,15.88,29c-.22-.53-1.62-1.51-1.62-1.51s-3.13-2.14-5.18-3.82a33.11,33.11,0,0,1-3.13-3l-2-.11a22.55,22.55,0,0,0,12,8.8c.86-.14,3.28-1.86,5.08-3.26a57.44,57.44,0,0,0,5.94-5.89,6.07,6.07,0,0,0,1.14-2C27,18.6,26.24,18.92,26.24,18.92Z" transform="translate(0 0)"/><path class="cls-3" d="M94.79,26.06a7,7,0,0,1-1.19-4.4v-6.4a7.09,7.09,0,0,1,1.18-4.44q1.18-1.5,4-1.5a4.84,4.84,0,0,1,3.86,1.34,5.69,5.69,0,0,1,1.14,3.79V16h-3.76V14.21a4.52,4.52,0,0,0-.21-1.58q-.22-.55-1-.55a1.05,1.05,0,0,0-1.07.58,4.08,4.08,0,0,0-.26,1.61v8.36a3.83,3.83,0,0,0,.27,1.61,1.06,1.06,0,0,0,1.06.56,1,1,0,0,0,1-.56,4.5,4.5,0,0,0,.23-1.61V20.77h3.76V22.3a6,6,0,0,1-1.14,3.89,4.73,4.73,0,0,1-3.86,1.39Q96,27.59,94.79,26.06Z" transform="translate(0 0)"/><path class="cls-3" d="M108.39,9.56h4.38L116,27.32h-3.54l-.58-3.75h-2.55l-.6,3.75h-3.63Zm3.13,11.67-.92-6.93-.92,6.93Z" transform="translate(0 0)"/><path class="cls-3" d="M118.67,12.48H116V9.56h9.08v2.92h-2.6V27.32h-3.86Z" transform="translate(0 0)"/><path class="cls-3" d="M132.09,9.56h6.74V11.4h-4.32v5.88H138V19h-3.5v6.51h4.36v1.78h-6.78Z" transform="translate(0 0)"/><path class="cls-3" d="M140.81,9.56h1.65l4.94,11.8V9.56h2V27.32h-1.55l-5-12.13V27.32h-2.06Z" transform="translate(0 0)"/><path class="cls-3" d="M151.83,9.56h6.74V11.4h-4.32v5.88h3.5V19h-3.5v6.51h4.36v1.78h-6.78Z" transform="translate(0 0)"/><path class="cls-3" d="M160.55,9.56h3.5a5.69,5.69,0,0,1,3.88,1.11,4.64,4.64,0,0,1,1.23,3.61q0,3.42-2.15,4.14l2.47,8.9h-2.34L164.87,19H163v8.33h-2.43Zm3.35,7.65a3.22,3.22,0,0,0,2.24-.64,3.1,3.1,0,0,0,.68-2.3,5,5,0,0,0-.24-1.72,1.64,1.64,0,0,0-.84-.92,3.93,3.93,0,0,0-1.7-.3H163v5.88Z" transform="translate(0 0)"/><path class="cls-3" d="M172.28,26a8,8,0,0,1-1.05-4.53V15.55a11.47,11.47,0,0,1,.42-3.39,3.78,3.78,0,0,1,1.44-2,4.82,4.82,0,0,1,2.8-.71,4.32,4.32,0,0,1,3.47,1.25,6,6,0,0,1,1.06,3.93v.66h-2.28v-.55a9.89,9.89,0,0,0-.15-2,1.67,1.67,0,0,0-.63-1,2.41,2.41,0,0,0-1.43-.35,2.11,2.11,0,0,0-1.5.47,2.22,2.22,0,0,0-.63,1.26,12.65,12.65,0,0,0-.14,2.11v6.58a6.51,6.51,0,0,0,.48,2.93,2.33,2.33,0,0,0,3.71-.08,7.05,7.05,0,0,0,.5-3.09V20.28h-2.21V18.53h4.4v8.79H179l-.24-2a3.07,3.07,0,0,1-3.09,2.26A3.85,3.85,0,0,1,172.28,26Z" transform="translate(0 0)"/><path class="cls-3" d="M185.39,21.05,181.64,9.56h2.25l2.66,8.58,2.62-8.58h2.28l-3.74,11.49v6.27h-2.32Z" transform="translate(0 0)"/></svg>