<svg id="Layer_1" data-name="Layer 1" xmlns="http://www.w3.org/2000/svg" viewBox="0 0 30 15.76"><title>vk-icon</title><path d="M23.94,15.76a4,4,0,0,1-2.08-.63,9.81,9.81,0,0,1-1.78-1.53c-.44-.44-1.17-1.18-1.45-1.18s-.48.92-.48,1.57a1.69,1.69,0,0,1-.47,1.21,2.26,2.26,0,0,1-1.22.5H14.55a11.34,11.34,0,0,1-7.43-3C3.44,9.33.28,2.89.15,2.61A1.35,1.35,0,0,1,.3,1.13,2,2,0,0,1,1.66.65l4.08,0h.11a2.64,2.64,0,0,1,1,.35,1.84,1.84,0,0,1,.63.73A22.28,22.28,0,0,0,8.92,4.4c1.31,2,1.9,2.45,2.1,2.56a8.21,8.21,0,0,0,.19-2.87A2.67,2.67,0,0,0,11,2.81a1.34,1.34,0,0,0-.78-.29l-.72-.69C9.36,1.17,10.09.6,10.6.38A8.55,8.55,0,0,1,13.75,0h.71A9.15,9.15,0,0,1,16.61.2c1.7.36,1.64,1.73,1.57,3.31,0,.46,0,1,0,1.62,0,.15,0,.31,0,.48a4,4,0,0,0,.09,1.3,9.29,9.29,0,0,0,2.07-2.48,20.15,20.15,0,0,0,1.52-2.8h0A1.59,1.59,0,0,1,23.41.68l4.27,0,.38,0c1,0,1.6.29,1.83.85s.17,1.66-2.35,4.61l-1,1.13a7.34,7.34,0,0,0-1.24,1.59A6.73,6.73,0,0,0,26.58,10a14.34,14.34,0,0,1,3,3.07,1.59,1.59,0,0,1,.26,1.68,2.29,2.29,0,0,1-1.88,1l-3.79,0Zm-5.31-4.84c.9,0,1.68.79,2.51,1.62a8.8,8.8,0,0,0,1.5,1.31,2.49,2.49,0,0,0,1.4.41h.1l3.81,0a1.69,1.69,0,0,0,.54-.14,1.17,1.17,0,0,0-.1-.17,13.07,13.07,0,0,0-2.69-2.72c-1.18-1-1.8-1.47-1.86-2.24s.49-1.44,1.61-2.7l1-1.11a10.55,10.55,0,0,0,2.06-3,5.3,5.3,0,0,0-.68,0l-4.36,0a.54.54,0,0,0-.25,0,20.42,20.42,0,0,1-1.64,3c-1.9,2.82-2.78,3.2-3.41,3.2a1.14,1.14,0,0,1-.57-.15c-1-.57-1-1.83-.93-2.76,0-.15,0-.3,0-.43,0-.65,0-1.21,0-1.69.08-1.68,0-1.69-.38-1.78a7.73,7.73,0,0,0-1.86-.16h-.69a14,14,0,0,0-1.91.1,1.86,1.86,0,0,1,.26.25A3.79,3.79,0,0,1,12.71,4c.13,1.65.06,3.8-1,4.31a1.36,1.36,0,0,1-.6.14c-.93,0-1.85-.89-3.43-3.27A22.86,22.86,0,0,1,6.08,2.34L6,2.24a1.13,1.13,0,0,0-.32-.12l-4,0H1.61C2.2,3.35,5,8.75,8.13,11.58a10,10,0,0,0,6.42,2.63H16.4a1.12,1.12,0,0,0,.27-.1s0-.05,0-.1c0-.26,0-2.59,1.58-3A1.52,1.52,0,0,1,18.63,10.92Z" transform="translate(0 0)"/></svg>