<svg id="Layer_1" data-name="Layer 1" xmlns="http://www.w3.org/2000/svg" viewBox="0 0 201.99 59.48"><defs><style>.cls-1{fill:#fdc305}.cls-2{fill:#f06351}.cls-4{fill:#111}</style></defs><path class="cls-1" d="M59.88 24a25.61 25.61 0 1 0-27.37 35.2c-.58-2.09-1.16-4.4-1.69-6.86a32.69 32.69 0 0 0 4.77 2.56s.12 2.16.28 4.57a25.41 25.41 0 0 0 5.32-.47 2 2 0 0 1 0-.76c.29-1.86 1.09-5.24 1.25-7.41a15.25 15.25 0 0 0 2.9-3.71l-.05.43c-.55 4.26-1.7 8.81-2.4 10.07a5.78 5.78 0 0 1-.83 1.15A25.63 25.63 0 0 0 59.88 24zm-1.48 3.79c-.43.43-1.35.72-1.49-.58S56.72 25 56.72 25s-1.93-3.42-2.65-3.47-5.83 3.47-7.18 5c-1.16 1.29-1.4 1.2-1.4 3.47 0 1.71.22 8.17.1 13.11l-8.15 2.17a64.75 64.75 0 0 1-7.8 1.72l-1-5.83h-.14L25.93 28s-3.81-1.45-5.2-1.83a3.74 3.74 0 0 0-4 .63A5.08 5.08 0 0 0 15 30.66a6.89 6.89 0 0 1 .48 1.45c0 .48-1.2.43-2 .43s-.92-1.45-.29-3.13A23.65 23.65 0 0 1 15 25.66a11.9 11.9 0 0 1 2.07-2.89s.14-.34 1.25-.24 7.28.43 7.28.43l.05-2.27a144.23 144.23 0 0 1 20.24-1.34q0 .91-.06 1.83a22.64 22.64 0 0 1 8.14-2 .91.91 0 0 1 .77.39c.34.43 2.41 3 2.65 3.37a28.1 28.1 0 0 1 1.83 3 6.27 6.27 0 0 1-.81 1.84z"/><path class="cls-2" d="M56.46 21.67c.47.6.89 1.13 1 1.29a28.1 28.1 0 0 1 1.83 3 6.27 6.27 0 0 1-.87 1.78c-.43.43-1.35.72-1.49-.58S56.72 25 56.72 25s-1.93-3.42-2.65-3.47-5.83 3.47-7.18 5c-1.16 1.29-1.4 1.2-1.4 3.47 0 1.5.17 6.65.13 11.23 1.81.21 4.47.71 5.27 1.88 0 0-.29-7.18 7.81-3.42 0 0 .29-9.78 11.47-7.28a43.78 43.78 0 0 0-13.71-10.74zm-10.53-2.32a90.51 90.51 0 0 0-1.4-16.53s-.14-1.3-.87-.24a14.23 14.23 0 0 0-1.2 4 70.62 70.62 0 0 0-12.82.34c-.82-2.75-2.22-4-2.89-3.66S26 6.53 26 6.53l-.33 14.16a144.23 144.23 0 0 1 20.26-1.34z"/><path d="M45.35 47.12c.13-1.06.2-2.49.24-4.06l-8.15 2.17a64.75 64.75 0 0 1-7.8 1.77l1.11 5 .07.33a32.69 32.69 0 0 0 4.77 2.56 42.65 42.65 0 0 0 6.87-4.13v.06a15.25 15.25 0 0 0 2.89-3.7z" fill="#e55645"/><path d="M32 16.22c0-.09 1 .68 1.41.92s.61.42.61.59-.27.34-.63.34-.92-.12-1-.27h1.23A8.28 8.28 0 0 1 32 16.22zm7.5.11s-1.05 1.28-1.09 1.34-.17.34.19.29a8 8 0 0 0 1.22-.28c.11-.06.07-.2-.12-.18s-.68 0-1 .11l.84-1.27s.04-.12-.04-.01zm-3.14 6.11a2.31 2.31 0 0 0 1.09-1c.28-.66 0-.92-.44-1a2.45 2.45 0 0 0-1.74.34c-.4.37-.34.73-.05 1a5 5 0 0 0 1.14.66z"/><path class="cls-2" d="M35.95 23.7a2 2 0 0 1-.46.6 1.73 1.73 0 0 1-1 .39 2.17 2.17 0 0 1-1.49-.45 2.09 2.09 0 0 1-.53-.44 1 1 0 0 0-.36-.25s.75 4.12 2.58 4.77 2.15-.75 2.21-1.14a5.62 5.62 0 0 0-.82-3.24c-.01-.31-.08-.11-.13-.24z"/><path d="M34.3 24.84a3.47 3.47 0 0 1-2.34-1.42.14.14 0 0 1 .23-.17 3.24 3.24 0 0 0 2.11 1.31 2.1 2.1 0 0 0 1.63-1l.14-.19.1.21s.37.76 1 .8 1.06-.41 1.62-1.28a.14.14 0 1 1 .24.16c-.64 1-1.27 1.45-1.88 1.41A1.55 1.55 0 0 1 36 23.9a2.26 2.26 0 0 1-1.7.94z"/><circle class="cls-1" cx="36.26" cy="34.55" r="3.75" transform="rotate(-22.67 36.27 34.565)"/><path class="cls-4" d="M41.23 31.5l-3.13 1.31 1.15-5.64-7.5 9.76 3.13-1.31-1.15 5.64zm-7.39 3.82l4.16-5.4-.81 4 2-.82L35 38.52l.81-4z"/><circle class="cls-4" cx="32.44" cy="32.74" r="1.12" transform="rotate(-22.67 32.435 32.733)"/><circle class="cls-4" cx="38.96" cy="37.13" r=".79" transform="rotate(-22.67 38.973 37.13)"/><circle class="cls-4" cx="39.92" cy="35.4" r=".35" transform="rotate(-22.67 39.942 35.405)"/><path class="cls-2" d="M45.88 21.16a58.38 58.38 0 0 0-5.08 5.21 31.76 31.76 0 0 1-5.31 4.89c-.22-.53-1.63-1.51-1.63-1.51s-3.14-2.15-5.2-3.84a33.24 33.24 0 0 1-3.14-3l-2-.11a22.64 22.64 0 0 0 12 8.84c.87-.14 3.29-1.87 5.1-3.28a57.67 57.67 0 0 0 6-5.92 6.09 6.09 0 0 0 1.14-2c-1.16.39-1.88.72-1.88.72z"/><path class="cls-1" d="M65.22 3.5l-8.46 9.44-1.22-1.99L63.69 0l1.53 3.5zm-2.57 13.76l5.54-4.11-.78-3.74-5.4 4.81.64 3.04zm-2.73 32.11l6.13 3.18 3.01-2.34-6.69-2.75-2.45 1.91zM1.95 5.97l3.07-3.36 9.29 9-1.22 2.28L1.95 5.97zm5.43 10.31l-4.7-3.13-2.4 3.87 5.15 2.4 1.95-3.14zm6.53 36.27L9.36 55.9l2.8 3.58 4.02-4.02-2.27-2.91z"/><path class="cls-2" d="M25.93 28s-3.81-1.45-5.2-1.83a3.74 3.74 0 0 0-4 .63A5.08 5.08 0 0 0 15 30.66a6.89 6.89 0 0 1 .48 1.45c0 .48-1.2.43-2 .43s-.92-1.45-.29-3.13A23.65 23.65 0 0 1 15 25.66c-5.45 2.84-15 9.4-15 9.4a45.9 45.9 0 0 1 8.19.24c5.25.53 5 4.67 5 4.67a38.14 38.14 0 0 1 5.64-1.11c2.12-.14 2.26 2.12 2.26 2.12l.53 3.86a18.79 18.79 0 0 1 2.65-2.36 6.07 6.07 0 0 1 4.39-1.3z"/><path class="cls-4" d="M85.66 42a8.32 8.32 0 0 1-1.4-5.19v-7.47a8.41 8.41 0 0 1 1.38-5.24q1.39-1.77 4.75-1.77 3.21 0 4.54 1.57a6.74 6.74 0 0 1 1.33 4.49v1.76h-4.13V28.2a10 10 0 0 0-.13-1.5 1.67 1.67 0 0 0-.47-.94 1.57 1.57 0 0 0-1.15-.38 1.47 1.47 0 0 0-1.5.75 5.59 5.59 0 0 0-.34 2.2v9.53a4.83 4.83 0 0 0 .39 2.2 1.49 1.49 0 0 0 1.45.72 1.35 1.35 0 0 0 1.4-.74 5.91 5.91 0 0 0 .31-2.19v-2h4.14v1.73A7.25 7.25 0 0 1 95 42.19q-1.32 1.64-4.56 1.64T85.66 42zm16.25-19.42h4.74l4 21h-3.93l-.72-4.64h-3.31l-.8 4.61h-4zm3.65 13.72l-1.27-8.44-1.24 8.44zm8.16-10.56h-3.24v-3.16h10.72v3.16H118v17.81h-4.3z"/><path d="M129.61 22.58h8.13v2.17h-5.2v6.94h4.22v2.07h-4.22v7.69h5.26v2.1h-8.18zm10.54 0h2l6 13.93V22.58h2.43v21h-1.86l-6-14.32v14.29h-2.48zm13.67 0h8.13v2.17h-5.2v6.94H161v2.07h-4.22v7.69H162v2.1h-8.18zm10.53 0h4.22a7 7 0 0 1 4.67 1.31 5.4 5.4 0 0 1 1.49 4.26q0 4-2.59 4.89l3 10.51h-2.84l-2.74-9.84h-2.28v9.84h-2.92zm4 9a3.94 3.94 0 0 0 2.7-.75 3.61 3.61 0 0 0 .82-2.72 5.82 5.82 0 0 0-.29-2 2 2 0 0 0-1-1.09 4.83 4.83 0 0 0-2-.35h-1.3v6.94zM178.67 42a9.28 9.28 0 0 1-1.27-5.35v-7a13.32 13.32 0 0 1 .5-4 4.48 4.48 0 0 1 1.74-2.41 5.91 5.91 0 0 1 3.36-.84 5.27 5.27 0 0 1 4.18 1.47 7 7 0 0 1 1.28 4.63v.78h-2.74v-.65a11.41 11.41 0 0 0-.18-2.32 2 2 0 0 0-.76-1.23 3 3 0 0 0-1.72-.41 2.57 2.57 0 0 0-1.81.56 2.6 2.6 0 0 0-.76 1.49 14.45 14.45 0 0 0-.17 2.49V37a7.55 7.55 0 0 0 .58 3.46 2.33 2.33 0 0 0 2.24 1 2.31 2.31 0 0 0 2.24-1.14 8.16 8.16 0 0 0 .61-3.65v-1.43h-2.67v-2.07h5.31v10.38h-1.83l-.29-2.41a3.69 3.69 0 0 1-3.73 2.67 4.68 4.68 0 0 1-4.11-1.81zm16.02-5.85l-4.53-13.56h2.72l3.21 10.12 3.16-10.12H202l-4.5 13.56v7.4h-2.8z" fill="#444"/></svg>