<svg id="Layer_2" data-name="Layer 2" xmlns="http://www.w3.org/2000/svg" viewBox="0 0 172.26 57.07"><defs><style>.cls-2{fill:#f06351}.cls-4{fill:#111}</style></defs><path d="M59.62 21.74a25.5 25.5 0 1 0-27.25 35.05c-.58-2.08-1.16-4.38-1.68-6.83a32.55 32.55 0 0 0 4.75 2.54s.12 2.15.28 4.55a25.3 25.3 0 0 0 5.28-.46 2 2 0 0 1 0-.76c.29-1.85 1.09-5.21 1.24-7.38a15.19 15.19 0 0 0 2.89-3.7l-.05.43c-.55 4.25-1.7 8.78-2.39 10a5.75 5.75 0 0 1-.83 1.15 25.52 25.52 0 0 0 17.76-34.59zm-1.47 3.77c-.43.43-1.34.72-1.49-.58s-.19-2.21-.19-2.21-1.92-3.41-2.64-3.45-5.83 3.46-7.14 4.94c-1.16 1.28-1.39 1.2-1.39 3.45 0 1.71.22 8.13.1 13.05l-8.11 2.16a64.47 64.47 0 0 1-7.77 1.78l-1-5.81h-.13L25.81 25.7s-3.81-1.44-5.18-1.82a3.72 3.72 0 0 0-4 .62 5.06 5.06 0 0 0-1.73 3.84 6.86 6.86 0 0 1 .48 1.44c0 .48-1.2.43-2 .43s-.91-1.44-.29-3.12A23.55 23.55 0 0 1 15 23.4a11.85 11.85 0 0 1 2-2.88s.14-.34 1.25-.24 7.25.43 7.25.43l.05-2.26a143.6 143.6 0 0 1 20.16-1.33q0 .91-.06 1.82a22.54 22.54 0 0 1 8.11-2 .91.91 0 0 1 .77.38c.34.43 2.4 3 2.64 3.36a28 28 0 0 1 1.82 3 6.24 6.24 0 0 1-.84 1.83z" fill="#fdc305"/><path class="cls-2" d="M56.21 19.43c.47.6.88 1.12 1 1.28a28 28 0 0 1 1.82 3 6.24 6.24 0 0 1-.86 1.78c-.43.43-1.34.72-1.49-.58s-.19-2.21-.19-2.21-1.92-3.41-2.64-3.45-5.85 3.48-7.16 4.96c-1.16 1.28-1.39 1.2-1.39 3.45 0 1.5.17 6.62.13 11.18 1.8.21 4.45.71 5.25 1.87 0 0-.29-7.15 7.77-3.41 0 0 .29-9.74 11.42-7.25a43.59 43.59 0 0 0-13.66-10.62zm-10.47-2.32A90.12 90.12 0 0 0 44.33.65s-.14-1.3-.86-.24a14.16 14.16 0 0 0-1.2 3.93 70.32 70.32 0 0 0-12.76.34C28.69 1.95 27.3.75 26.63 1s-.72 3.31-.72 3.31l-.33 14.1a143.6 143.6 0 0 1 20.16-1.3z"/><path d="M45.15 44.76c.13-1.06.2-2.47.24-4l-8.11 2.16a64.47 64.47 0 0 1-7.77 1.78l1.1 5 .07.32a32.55 32.55 0 0 0 4.75 2.54 42.47 42.47 0 0 0 6.84-4.12v.06a15.19 15.19 0 0 0 2.88-3.74z" fill="#e55645"/><path d="M31.86 14c0-.09 1 .68 1.41.92s.61.42.61.59-.26.34-.62.34-.91-.12-1-.26h1.23A8.24 8.24 0 0 1 31.86 14zm7.47.11s-1 1.27-1.09 1.33-.17.34.19.29a7.93 7.93 0 0 0 1.22-.28c.11-.06.07-.2-.12-.18s-.68 0-1 .11l.84-1.26s.04-.12-.04-.01zm-3.13 6.08a2.3 2.3 0 0 0 1.09-1c.28-.66 0-.91-.44-1a2.44 2.44 0 0 0-1.74.34c-.4.37-.34.73-.05 1a5 5 0 0 0 1.14.66z"/><path class="cls-2" d="M35.79 21.44a2 2 0 0 1-.46.59 1.72 1.72 0 0 1-1 .39 2.16 2.16 0 0 1-1.46-.42 2.08 2.08 0 0 1-.53-.44.94.94 0 0 0-.36-.25s.75 4.1 2.56 4.74 2.14-.75 2.2-1.13a5.59 5.59 0 0 0-.82-3.22c-.01-.33-.03-.12-.13-.26z"/><path d="M34.15 22.58a3.46 3.46 0 0 1-2.33-1.42A.14.14 0 0 1 32 21a3.23 3.23 0 0 0 2.1 1.3 2.09 2.09 0 0 0 1.63-1l.14-.19.1.21s.37.76 1 .79 1.05-.41 1.62-1.28a.14.14 0 1 1 .24.16c-.63 1-1.26 1.45-1.88 1.41a1.55 1.55 0 0 1-1.12-.76 2.25 2.25 0 0 1-1.68.94z"/><path class="cls-4" d="M41.05 29.22l-3.12 1.3 1.14-5.61-7.47 9.72 3.12-1.3-1.14 5.61zM33.7 33l4.11-5.38-.8 4 2-.82-4.11 5.38.8-4z"/><path class="cls-2" d="M45.68 18.92a58.12 58.12 0 0 0-5.06 5.19A31.62 31.62 0 0 1 35.33 29c-.22-.53-1.62-1.51-1.62-1.51s-3.13-2.14-5.18-3.82a33.1 33.1 0 0 1-3.12-3l-2-.11a22.54 22.54 0 0 0 12 8.8c.86-.14 3.27-1.86 5.07-3.26a57.42 57.42 0 0 0 5.94-5.89 6.07 6.07 0 0 0 1.14-2c-1.16.38-1.88.71-1.88.71zM25.81 25.7s-3.81-1.44-5.18-1.82a3.72 3.72 0 0 0-4 .62 5.06 5.06 0 0 0-1.73 3.84 6.86 6.86 0 0 1 .48 1.44c0 .48-1.2.43-2 .43s-.91-1.44-.29-3.12A23.55 23.55 0 0 1 15 23.4c-5.45 2.83-15 9.35-15 9.35a45.7 45.7 0 0 1 8.16.25c5.23.53 4.94 4.65 4.94 4.65a38 38 0 0 1 5.61-1.1c2.11-.15 2.29 2.1 2.29 2.1l.53 3.84a18.71 18.71 0 0 1 2.64-2.35 6 6 0 0 1 4.37-1.3z"/><path class="cls-4" d="M89.56 37.12a5.91 5.91 0 0 1-1-3.69v-5.34a6 6 0 0 1 1-3.73 5.2 5.2 0 0 1 6.61-.15 4.79 4.79 0 0 1 .95 3.19v1.25h-2.96v-1.37a7.12 7.12 0 0 0-.06-1.07 1.19 1.19 0 0 0-.33-.67 1.12 1.12 0 0 0-.82-.27 1 1 0 0 0-1.07.53 4 4 0 0 0-.24 1.56v6.77a3.43 3.43 0 0 0 .28 1.56 1.06 1.06 0 0 0 1 .52 1 1 0 0 0 1-.52 4.2 4.2 0 0 0 .22-1.56v-1.44h2.96v1.23a5.16 5.16 0 0 1-.94 3.3 3.94 3.94 0 0 1-3.24 1.17 4 4 0 0 1-3.36-1.27zm11.56-13.83h3.37l2.87 14.91h-2.8l-.56-3.28h-2.36l-.57 3.28h-2.84zm2.59 9.71l-.9-6-.88 6zm5.8-7.46h-2.3v-2.25h7.62v2.25h-2.26V38.2h-3.05z"/><path d="M120.81 23.29h5.78v1.55h-3.7v4.93h3v1.47h-3v5.47h3.74v1.49h-5.82zm7.49 0h1.42l4.23 9.9v-9.9h1.73V38.2h-1.33L130.06 28v10.2h-1.76zm9.7 0h5.78v1.55h-3.7v4.93h3v1.47h-3v5.47h3.74v1.49H138zm7.51 0h3a5 5 0 0 1 3.32.93 3.84 3.84 0 0 1 1.06 3q0 2.87-1.84 3.48l2.12 7.47h-2l-2-7h-1.62v7h-2.08zm2.87 6.42a2.8 2.8 0 0 0 1.92-.53 2.57 2.57 0 0 0 .58-1.93 4.14 4.14 0 0 0-.2-1.44A1.39 1.39 0 0 0 150 25a3.43 3.43 0 0 0-1.45-.25h-.92v4.93zm7.3 7.39a6.6 6.6 0 0 1-.9-3.8v-5a9.47 9.47 0 0 1 .36-2.84 3.18 3.18 0 0 1 1.23-1.71 4.2 4.2 0 0 1 2.4-.6 3.75 3.75 0 0 1 3 1 5 5 0 0 1 .91 3.29v.55h-2v-.39a8.11 8.11 0 0 0-.13-1.65 1.4 1.4 0 0 0-.54-.87 2.11 2.11 0 0 0-1.22-.29 1.83 1.83 0 0 0-1.29.4 1.85 1.85 0 0 0-.54 1.06 10.27 10.27 0 0 0-.12 1.77v5.52a5.37 5.37 0 0 0 .41 2.46 1.66 1.66 0 0 0 1.59.75 1.64 1.64 0 0 0 1.59-.81 5.8 5.8 0 0 0 .43-2.59v-1H159v-1.53h3.77v7.38h-1.31l-.2-1.71a2.62 2.62 0 0 1-2.65 1.9 3.33 3.33 0 0 1-2.93-1.29zm11.39-4.17l-3.22-9.64h1.93l2.28 7.2 2.25-7.2h2l-3.2 9.64v5.27h-2z" fill="#444"/></svg>